<svg xmlns="http://www.w3.org/2000/svg" width="1080" height="620" viewBox="0 0 1080 620"><rect width="100%" height="100%" fill="#ffffff"/><style>text{font-family:Inter,Segoe UI,Arial,sans-serif}</style><text x="100" y="28" text-anchor="start" font-family="Inter,Segoe UI,Arial,sans-serif" font-size="22" font-weight="700" fill="#172126">HTTP server throughput overview</text><text x="100" y="52" text-anchor="start" font-family="Inter,Segoe UI,Arial,sans-serif" font-size="13" fill="#647178">Median of 3 x 10 s wrk runs; higher is better</text><line x1="100" y1="534.0" x2="1045" y2="534.0" stroke="#d9e0e4" stroke-width="1"/><text x="88.0" y="539.0" text-anchor="end" font-size="13" font-weight="400" fill="#56636a">0k</text><line x1="100" y1="448.8" x2="1045" y2="448.8" stroke="#d9e0e4" stroke-width="1"/><text x="88.0" y="453.8" text-anchor="end" font-size="13" font-weight="400" fill="#56636a">200k</text><line x1="100" y1="363.6" x2="1045" y2="363.6" stroke="#d9e0e4" stroke-width="1"/><text x="88.0" y="368.6" text-anchor="end" font-size="13" font-weight="400" fill="#56636a">400k</text><line x1="100" y1="278.4" x2="1045" y2="278.4" stroke="#d9e0e4" stroke-width="1"/><text x="88.0" y="283.4" text-anchor="end" font-size="13" font-weight="400" fill="#56636a">600k</text><line x1="100" y1="193.2" x2="1045" y2="193.2" stroke="#d9e0e4" stroke-width="1"/><text x="88.0" y="198.2" text-anchor="end" font-size="13" font-weight="400" fill="#56636a">800k</text><line x1="100" y1="108.0" x2="1045" y2="108.0" stroke="#d9e0e4" stroke-width="1"/><text x="88.0" y="113.0" text-anchor="end" font-size="13" font-weight="400" fill="#56636a">1000k</text><text x="24.0" y="321.0" text-anchor="middle" font-size="14" font-weight="600" fill="#263238" transform="rotate(-90 24 321.0)">Requests / second</text><line x1="100" y1="77" x2="125" y2="77" stroke="#2563eb" stroke-width="4"/><text x="133.0" y="82.0" text-anchor="start" font-size="13" font-weight="400" fill="#263238">co_mira coroutine</text><line x1="320" y1="77" x2="345" y2="77" stroke="#dc5a41" stroke-width="4"/><text x="353.0" y="82.0" text-anchor="start" font-size="13" font-weight="400" fill="#263238">io_uring callback</text><line x1="540" y1="77" x2="565" y2="77" stroke="#178f65" stroke-width="4"/><text x="573.0" y="82.0" text-anchor="start" font-size="13" font-weight="400" fill="#263238">epoll event-loop</text><line x1="760" y1="77" x2="785" y2="77" stroke="#7c3aed" stroke-width="4"/><text x="793.0" y="82.0" text-anchor="start" font-size="13" font-weight="400" fill="#263238">blocking thread pool</text><rect x="123.4" y="520.0" width="19.3" height="14.0" fill="#2563eb"/><rect x="146.4" y="519.7" width="19.3" height="14.3" fill="#dc5a41"/><rect x="169.3" y="520.3" width="19.3" height="13.7" fill="#178f65"/><rect x="192.3" y="519.7" width="19.3" height="14.3" fill="#7c3aed"/><text x="167.5" y="561.0" text-anchor="middle" font-size="12" font-weight="400" fill="#56636a">w2-c1</text><rect x="258.4" y="314.4" width="19.3" height="219.6" fill="#2563eb"/><rect x="281.4" y="327.1" width="19.3" height="206.9" fill="#dc5a41"/><rect x="304.3" y="361.1" width="19.3" height="172.9" fill="#178f65"/><rect x="327.3" y="504.5" width="19.3" height="29.5" fill="#7c3aed"/><text x="302.5" y="561.0" text-anchor="middle" font-size="12" font-weight="400" fill="#56636a">w2-c16</text><rect x="393.4" y="265.1" width="19.3" height="268.9" fill="#2563eb"/><rect x="416.4" y="272.5" width="19.3" height="261.5" fill="#dc5a41"/><rect x="439.3" y="309.9" width="19.3" height="224.1" fill="#178f65"/><rect x="462.3" y="503.2" width="19.3" height="30.8" fill="#7c3aed"/><text x="437.5" y="561.0" text-anchor="middle" font-size="12" font-weight="400" fill="#56636a">w2-c64</text><rect x="528.4" y="247.8" width="19.3" height="286.2" fill="#2563eb"/><rect x="551.4" y="254.3" width="19.3" height="279.7" fill="#dc5a41"/><rect x="574.3" y="303.6" width="19.3" height="230.4" fill="#178f65"/><rect x="597.3" y="503.7" width="19.3" height="30.3" fill="#7c3aed"/><text x="572.5" y="561.0" text-anchor="middle" font-size="12" font-weight="400" fill="#56636a">w2-c256</text><rect x="663.4" y="257.5" width="19.3" height="276.5" fill="#2563eb"/><rect x="686.4" y="267.7" width="19.3" height="266.3" fill="#dc5a41"/><rect x="709.3" y="315.7" width="19.3" height="218.3" fill="#178f65"/><rect x="732.3" y="504.8" width="19.3" height="29.2" fill="#7c3aed"/><text x="707.5" y="561.0" text-anchor="middle" font-size="12" font-weight="400" fill="#56636a">w2-c1024</text><rect x="798.4" y="308.1" width="19.3" height="225.9" fill="#2563eb"/><rect x="821.4" y="295.2" width="19.3" height="238.8" fill="#dc5a41"/><rect x="844.3" y="429.9" width="19.3" height="104.1" fill="#178f65"/><rect x="867.3" y="519.4" width="19.3" height="14.6" fill="#7c3aed"/><text x="842.5" y="561.0" text-anchor="middle" font-size="12" font-weight="400" fill="#56636a">w1-c256</text><rect x="933.4" y="354.2" width="19.3" height="179.8" fill="#2563eb"/><rect x="956.4" y="359.3" width="19.3" height="174.7" fill="#dc5a41"/><rect x="979.3" y="400.7" width="19.3" height="133.3" fill="#178f65"/><rect x="1002.3" y="479.5" width="19.3" height="54.5" fill="#7c3aed"/><text x="977.5" y="561.0" text-anchor="middle" font-size="12" font-weight="400" fill="#56636a">w4-c256</text></svg>